<?xml version="1.0" encoding="UTF-8"?>
<svg xmlns="http://www.w3.org/2000/svg" xmlns:xlink="http://www.w3.org/1999/xlink" width="480pt" height="480pt" viewBox="0 0 480 480" version="1.1">
<g id="surface1">
<path style=" stroke:none;fill-rule:nonzero;fill:currentColor;fill-opacity:1;" d="M 126 60 C 102.882813 60 84.007813 78.878906 84 102 C 84 125.117188 102.882813 144 126 144 C 149.125 144 168 125.117188 168 102 L 168 96 L 166.78125 96 C 163.742188 75.824219 146.996094 60 126 60 Z M 240 60 C 216.882813 60 198.007813 78.878906 198 102 C 198 125.117188 216.882813 144 240 144 C 263.125 144 282 125.117188 282 102 L 282 96 L 280.78125 96 C 277.742188 75.824219 260.996094 60 240 60 Z M 354 60 C 330.875 60 312 78.875 312 102 C 312 125.125 330.875 144 354 144 C 377.125 144 396 125.125 396 102 C 396 78.875 377.125 60 354 60 Z M 126 72 C 142.632813 72 156 85.367188 156 102 C 156 118.625 142.632813 132 126 132 C 109.375 132 96 118.625 96 102 C 96.003906 85.363281 109.375 72 126 72 Z M 240 72 C 256.632813 72 270 85.367188 270 102 C 270 118.625 256.632813 132 240 132 C 223.375 132 210 118.625 210 102 C 210.003906 85.363281 223.375 72 240 72 Z M 354 72 C 370.640625 72 384 85.359375 384 102 C 384 118.640625 370.640625 132 354 132 C 337.359375 132 324 118.640625 324 102 C 324 85.359375 337.359375 72 354 72 Z M 102 156 C 75.5625 156 54 177.5625 54 204 L 54 294 C 54 307.183594 64.816406 318 78 318 L 84 318 L 84 396 C 84 409.183594 94.816406 420 108 420 L 150 420 C 152.164063 420.03125 154.175781 418.894531 155.265625 417.023438 C 156.359375 415.15625 156.359375 412.84375 155.265625 410.976563 C 154.175781 409.105469 152.164063 407.96875 150 408 L 108 408 C 101.300781 408 96 402.699219 96 396 L 96 306 L 78 306 C 71.300781 306 66 300.699219 66 294 L 66 204 C 66 184.046875 82.046875 168 102 168 L 150 168 C 156.582031 168 162.703125 169.75 168 172.816406 C 169.859375 173.953125 172.1875 173.996094 174.082031 172.921875 C 175.980469 171.851563 177.148438 169.835938 177.132813 167.65625 C 177.117188 165.476563 175.921875 163.480469 174.011719 162.433594 C 166.949219 158.347656 158.71875 156 150 156 Z M 252.597656 156 L 252.597656 168 L 248.449219 157.652344 L 240.199219 165.515625 L 232.910156 157.875 C 231.777344 156.683594 230.207031 156.011719 228.5625 156.011719 C 212.257813 156.011719 199.503906 162.003906 190.535156 172.195313 C 181.566406 182.386719 176.121094 196.214844 171.773438 212.378906 C 171.742188 212.484375 171.714844 212.589844 171.691406 212.695313 L 156.574219 283.839844 C 154.285156 293.441406 160.308594 303.230469 169.910156 305.519531 C 169.914063 305.519531 169.917969 305.519531 169.921875 305.519531 C 171.609375 305.917969 173.328125 306.078125 175.03125 305.988281 C 182.828125 305.582031 189.707031 300.070313 191.589844 292.183594 L 198 268.019531 L 198 396 C 198 409.183594 208.816406 420 222 420 L 258 420 C 271.183594 420 282 409.183594 282 396 L 282 306 L 288 306 C 301.183594 306 312 295.183594 312 282 L 312 215.402344 C 312 182.335938 285.621094 156 252.597656 156 Z M 330 156 C 325.242188 156 320.632813 156.695313 316.277344 157.992188 C 314.15625 158.546875 312.507813 160.214844 311.976563 162.339844 C 311.445313 164.464844 312.113281 166.710938 313.722656 168.199219 C 315.328125 169.6875 317.621094 170.183594 319.699219 169.488281 C 322.953125 168.519531 326.40625 168 330 168 L 378 168 C 397.953125 168 414 184.046875 414 204 L 414 294 C 414 300.699219 408.699219 306 402 306 L 384 306 L 384 396 C 384 402.699219 378.699219 408 372 408 L 336 408 C 329.300781 408 324 402.699219 324 396 L 324 318 C 324.03125 315.835938 322.894531 313.824219 321.023438 312.734375 C 319.15625 311.640625 316.84375 311.640625 314.976563 312.734375 C 313.105469 313.824219 311.96875 315.835938 312 318 L 312 396 C 312 409.183594 322.816406 420 336 420 L 372 420 C 385.183594 420 396 409.183594 396 396 L 396 318 L 402 318 C 415.183594 318 426 307.183594 426 294 L 426 204 C 426 177.5625 404.4375 156 378 156 Z M 254.589844 168.386719 C 280.289063 169.445313 300 189.339844 300 215.402344 L 300 282 C 300 288.699219 294.699219 294 288 294 L 276 294 C 272.6875 294 270 296.6875 270 300 L 270 396 C 270 402.699219 264.699219 408 258 408 L 222 408 C 215.300781 408 210 402.699219 210 396 L 210 222 C 210 218.984375 207.761719 216.441406 204.773438 216.050781 C 201.785156 215.664063 198.972656 217.550781 198.199219 220.464844 L 179.953125 289.242188 C 179.941406 289.292969 179.929688 289.34375 179.917969 289.394531 C 179.269531 292.105469 176.957031 293.867188 174.398438 294 C 173.859375 294.027344 173.289063 293.988281 172.6875 293.847656 L 172.675781 293.847656 C 169.394531 293.058594 167.464844 289.898438 168.246094 286.617188 C 168.257813 286.570313 168.269531 286.523438 168.28125 286.476563 L 183.363281 215.496094 L 183.375 215.449219 C 187.5 200.125 192.609375 188.015625 199.546875 180.128906 C 206.046875 172.742188 214.277344 168.914063 226.382813 168.410156 L 235.664063 178.136719 C 237.949219 180.53125 241.738281 180.625 244.136719 178.347656 Z M 239.90625 185.917969 C 236.597656 185.96875 233.953125 188.691406 234 192 L 234 246 C 233.96875 248.164063 235.105469 250.175781 236.976563 251.265625 C 238.84375 252.359375 241.15625 252.359375 243.023438 251.265625 C 244.894531 250.175781 246.03125 248.164063 246 246 L 246 192 C 246.023438 190.378906 245.386719 188.816406 244.238281 187.671875 C 243.089844 186.523438 241.527344 185.894531 239.90625 185.917969 Z M 90 210 C 86.6875 210 84 212.6875 84 216 C 84 219.3125 86.6875 222 90 222 C 93.3125 222 96 219.3125 96 216 C 96 212.6875 93.3125 210 90 210 Z M 390 210 C 386.6875 210 384 212.6875 384 216 C 384 219.3125 386.6875 222 390 222 C 393.3125 222 396 219.3125 396 216 C 396 212.6875 393.3125 210 390 210 Z M 276 222 C 272.6875 222 270 224.6875 270 228 C 270 231.3125 272.6875 234 276 234 C 279.3125 234 282 231.3125 282 228 C 282 224.6875 279.3125 222 276 222 Z M 90 234 C 86.6875 234 84 236.6875 84 240 C 84 243.3125 86.6875 246 90 246 C 93.3125 246 96 243.3125 96 240 C 96 236.6875 93.3125 234 90 234 Z M 390 234 C 386.6875 234 384 236.6875 384 240 C 384 243.3125 386.6875 246 390 246 C 393.3125 246 396 243.3125 396 240 C 396 236.6875 393.3125 234 390 234 Z M 276 246 C 272.6875 246 270 248.6875 270 252 C 270 255.3125 272.6875 258 276 258 C 279.3125 258 282 255.3125 282 252 C 282 248.6875 279.3125 246 276 246 Z M 90 258 C 86.6875 258 84 260.6875 84 264 C 84 267.3125 86.6875 270 90 270 C 93.3125 270 96 267.3125 96 264 C 96 260.6875 93.3125 258 90 258 Z M 390 258 C 386.6875 258 384 260.6875 384 264 C 384 267.3125 386.6875 270 390 270 C 393.3125 270 396 267.3125 396 264 C 396 260.6875 393.3125 258 390 258 Z M 276 270 C 272.6875 270 270 272.6875 270 276 C 270 279.3125 272.6875 282 276 282 C 279.3125 282 282 279.3125 282 276 C 282 272.6875 279.3125 270 276 270 Z M 90 282 C 86.6875 282 84 284.6875 84 288 C 84 291.3125 86.6875 294 90 294 C 93.3125 294 96 291.3125 96 288 C 96 284.6875 93.3125 282 90 282 Z M 390 282 C 386.6875 282 384 284.6875 384 288 C 384 291.3125 386.6875 294 390 294 C 393.3125 294 396 291.3125 396 288 C 396 284.6875 393.3125 282 390 282 Z M 156 318 C 152.6875 318 150 320.6875 150 324 L 150 384 C 150 387.3125 152.6875 390 156 390 L 180 390 C 183.3125 390 186 387.3125 186 384 L 186 324 C 186 320.6875 183.3125 318 180 318 Z M 162 330 L 174 330 L 174 378 L 162 378 Z "/>
</g>
</svg>
