<?xml version="1.0" encoding="UTF-8"?>
<svg xmlns="http://www.w3.org/2000/svg" xmlns:xlink="http://www.w3.org/1999/xlink" width="512pt" height="512pt" viewBox="0 0 512 512" version="1.1">
<g id="surface1">
<path style=" stroke:none;fill-rule:nonzero;fill:#BBDEF9;fill-opacity:1;" d="M 32 72 L 480 72 C 493.253906 72 504 82.746094 504 96 L 504 416 C 504 429.253906 493.253906 440 480 440 L 32 440 C 18.746094 440 8 429.253906 8 416 L 8 96 C 8 82.746094 18.746094 72 32 72 Z "/>
<path style=" stroke:none;fill-rule:nonzero;fill:#DEF0FF;fill-opacity:1;" d="M 303.199219 440.800781 L 507.921875 236.078125 L 504 96 L 159.199219 440.800781 Z "/>
<path style=" stroke:none;fill-rule:nonzero;fill:#DEF0FF;fill-opacity:1;" d="M 122.960938 439.441406 L 70.480469 439.441406 L 440 69.921875 L 492.480469 69.921875 Z "/>
<path style=" stroke:none;fill-rule:nonzero;fill:#DEF0FF;fill-opacity:1;" d="M 34.640625 437.359375 L 8 432 L 368 72 L 400 72 Z "/>
<path style=" stroke:none;fill-rule:nonzero;fill:#97E0BB;fill-opacity:1;" d="M 384 409.039063 L 267.039063 293.039063 L 152 408 Z "/>
<path style=" stroke:none;fill-rule:nonzero;fill:#72CAAF;fill-opacity:1;" d="M 498.71875 378.078125 L 382.960938 272 L 240 414.960938 L 498.71875 414.960938 Z "/>
<path style=" stroke:none;fill-rule:nonzero;fill:#72CAAF;fill-opacity:1;" d="M 480 440 L 32 440 C 18.746094 440 8 429.253906 8 416 L 8 408 L 504 408 L 504 416 C 504 429.253906 493.253906 440 480 440 Z "/>
<path style=" stroke:none;fill-rule:nonzero;fill:#FFEB9B;fill-opacity:1;" d="M 168 200 C 168 217.671875 153.671875 232 136 232 C 118.328125 232 104 217.671875 104 200 C 104 182.328125 118.328125 168 136 168 C 153.671875 168 168 182.328125 168 200 Z "/>
<path style=" stroke:none;fill-rule:nonzero;fill:#8D6C9F;fill-opacity:1;" d="M 176.558594 200 C 176.558594 177.910156 158.652344 160 136.558594 160 C 114.46875 160 96.558594 177.910156 96.558594 200 C 96.558594 222.089844 114.46875 240 136.558594 240 C 158.652344 240 176.558594 222.089844 176.558594 200 Z M 136.558594 224 C 123.304688 224 112.558594 213.253906 112.558594 200 C 112.558594 186.746094 123.304688 176 136.558594 176 C 149.816406 176 160.558594 186.746094 160.558594 200 C 160.558594 213.253906 149.816406 224 136.558594 224 Z "/>
<path style=" stroke:none;fill-rule:nonzero;fill:#8D6C9F;fill-opacity:1;" d="M 128 264 L 128 280 C 128 284.417969 131.582031 288 136 288 C 140.417969 288 144 284.417969 144 280 L 144 264 C 144 259.582031 140.417969 256 136 256 C 131.582031 256 128 259.582031 128 264 Z "/>
<path style=" stroke:none;fill-rule:nonzero;fill:#8D6C9F;fill-opacity:1;" d="M 136 144 C 140.417969 144 144 140.417969 144 136 L 144 120 C 144 115.582031 140.417969 112 136 112 C 131.582031 112 128 115.582031 128 120 L 128 136 C 128 140.417969 131.582031 144 136 144 Z "/>
<path style=" stroke:none;fill-rule:nonzero;fill:#8D6C9F;fill-opacity:1;" d="M 192 200 C 192 204.417969 195.582031 208 200 208 L 216 208 C 220.417969 208 224 204.417969 224 200 C 224 195.582031 220.417969 192 216 192 L 200 192 C 195.582031 192 192 195.582031 192 200 Z "/>
<path style=" stroke:none;fill-rule:nonzero;fill:#8D6C9F;fill-opacity:1;" d="M 56 208 L 72 208 C 76.417969 208 80 204.417969 80 200 C 80 195.582031 76.417969 192 72 192 L 56 192 C 51.582031 192 48 195.582031 48 200 C 48 204.417969 51.582031 208 56 208 Z "/>
<path style=" stroke:none;fill-rule:nonzero;fill:#8D6C9F;fill-opacity:1;" d="M 169.039063 273.28125 C 170.476563 275.765625 173.128906 277.292969 176 277.28125 C 177.417969 277.339844 178.820313 276.945313 180 276.160156 C 181.851563 275.105469 183.207031 273.355469 183.761719 271.296875 C 184.316406 269.238281 184.027344 267.042969 182.960938 265.199219 L 174.960938 251.359375 C 172.660156 247.742188 167.917969 246.582031 164.207031 248.726563 C 160.492188 250.871094 159.132813 255.5625 161.121094 259.359375 Z "/>
<path style=" stroke:none;fill-rule:nonzero;fill:#8D6C9F;fill-opacity:1;" d="M 97.039063 148.558594 C 98.476563 151.046875 101.128906 152.570313 104 152.558594 C 105.417969 152.617188 106.820313 152.226563 108 151.441406 C 109.851563 150.382813 111.207031 148.632813 111.761719 146.574219 C 112.316406 144.519531 112.027344 142.324219 110.960938 140.480469 L 102.960938 126.640625 C 100.660156 123.023438 95.917969 121.859375 92.207031 124.003906 C 88.492188 126.152344 87.132813 130.839844 89.121094 134.640625 Z "/>
<path style=" stroke:none;fill-rule:nonzero;fill:#8D6C9F;fill-opacity:1;" d="M 184.480469 172 C 185.929688 174.542969 188.59375 176.148438 191.519531 176.238281 C 192.902344 176.21875 194.242188 175.769531 195.359375 174.960938 L 209.199219 166.960938 C 211.804688 165.597656 213.453125 162.917969 213.492188 159.980469 C 213.53125 157.042969 211.957031 154.316406 209.390625 152.886719 C 206.824219 151.453125 203.679688 151.542969 201.199219 153.121094 L 187.359375 161.121094 C 183.578125 163.34375 182.296875 168.195313 184.480469 172 Z "/>
<path style=" stroke:none;fill-rule:nonzero;fill:#8D6C9F;fill-opacity:1;" d="M 87.519531 228 C 86.464844 226.148438 84.714844 224.792969 82.65625 224.238281 C 80.597656 223.683594 78.402344 223.972656 76.558594 225.039063 L 62.71875 233.039063 C 60.867188 234.09375 59.515625 235.847656 58.960938 237.902344 C 58.402344 239.960938 58.691406 242.15625 59.761719 244 C 61.207031 246.542969 63.875 248.148438 66.800781 248.238281 C 68.179688 248.21875 69.523438 247.769531 70.640625 246.960938 L 84.480469 238.960938 C 86.34375 237.917969 87.714844 236.171875 88.285156 234.113281 C 88.859375 232.054688 88.582031 229.855469 87.519531 228 Z "/>
<path style=" stroke:none;fill-rule:nonzero;fill:#8D6C9F;fill-opacity:1;" d="M 187.441406 238.960938 L 201.28125 246.960938 C 202.398438 247.769531 203.738281 248.21875 205.121094 248.238281 C 208.046875 248.148438 210.710938 246.542969 212.160156 244 C 213.226563 242.15625 213.515625 239.960938 212.960938 237.902344 C 212.40625 235.847656 211.050781 234.09375 209.199219 233.039063 L 195.359375 225.039063 C 192.878906 223.464844 189.734375 223.375 187.167969 224.804688 C 184.601563 226.238281 183.027344 228.960938 183.070313 231.898438 C 183.109375 234.839844 184.757813 237.519531 187.359375 238.878906 Z "/>
<path style=" stroke:none;fill-rule:nonzero;fill:#8D6C9F;fill-opacity:1;" d="M 62.71875 166.960938 L 76.558594 174.960938 C 77.679688 175.769531 79.019531 176.21875 80.398438 176.238281 C 83.324219 176.148438 85.992188 174.542969 87.441406 172 C 88.507813 170.15625 88.796875 167.960938 88.242188 165.902344 C 87.683594 163.847656 86.332031 162.09375 84.480469 161.039063 L 70.640625 153.039063 C 68.160156 151.464844 65.015625 151.375 62.449219 152.804688 C 59.882813 154.238281 58.308594 156.960938 58.347656 159.898438 C 58.390625 162.839844 60.035156 165.519531 62.640625 166.878906 Z "/>
<path style=" stroke:none;fill-rule:nonzero;fill:#8D6C9F;fill-opacity:1;" d="M 164 151.519531 C 165.179688 152.304688 166.582031 152.699219 168 152.640625 C 170.871094 152.652344 173.523438 151.125 174.960938 148.640625 L 182.960938 134.800781 C 184.535156 132.320313 184.625 129.175781 183.195313 126.609375 C 181.761719 124.042969 179.039063 122.46875 176.101563 122.507813 C 173.160156 122.546875 170.480469 124.195313 169.121094 126.800781 L 161.121094 140.640625 C 158.933594 144.441406 160.21875 149.296875 164 151.519531 Z "/>
<path style=" stroke:none;fill-rule:nonzero;fill:#8D6C9F;fill-opacity:1;" d="M 102.960938 273.28125 L 110.960938 259.441406 C 112.535156 256.960938 112.625 253.816406 111.195313 251.25 C 109.761719 248.683594 107.039063 247.109375 104.101563 247.148438 C 101.160156 247.1875 98.480469 248.835938 97.121094 251.441406 L 89.121094 265.28125 C 88.050781 267.125 87.761719 269.320313 88.320313 271.375 C 88.875 273.433594 90.226563 275.183594 92.078125 276.238281 C 93.261719 277.027344 94.660156 277.417969 96.078125 277.359375 C 98.9375 277.328125 101.558594 275.769531 102.960938 273.28125 Z "/>
<path style=" stroke:none;fill-rule:nonzero;fill:#8D6C9F;fill-opacity:1;" d="M 472 400 L 259.28125 400 L 378.320313 280.960938 C 381.441406 277.859375 386.480469 277.859375 389.601563 280.960938 L 466.320313 357.679688 C 469.492188 360.398438 474.226563 360.214844 477.179688 357.261719 C 480.136719 354.304688 480.316406 349.574219 477.601563 346.398438 L 400.878906 269.679688 C 391.390625 260.617188 376.449219 260.617188 366.960938 269.679688 L 315.839844 320.800781 L 288.800781 293.601563 C 279.320313 284.820313 264.679688 284.820313 255.199219 293.601563 L 148.800781 400 L 104 400 C 99.582031 400 96 403.582031 96 408 C 96 412.417969 99.582031 416 104 416 L 472 416 C 476.417969 416 480 412.417969 480 408 C 480 403.582031 476.417969 400 472 400 Z M 266.398438 304.800781 C 269.511719 301.75 274.488281 301.75 277.601563 304.800781 L 304.71875 331.921875 L 236.71875 400 L 171.199219 400 Z "/>
<path style=" stroke:none;fill-rule:nonzero;fill:#8D6C9F;fill-opacity:1;" d="M 72 400 L 40 400 C 35.582031 400 32 403.582031 32 408 C 32 412.417969 35.582031 416 40 416 L 72 416 C 76.417969 416 80 412.417969 80 408 C 80 403.582031 76.417969 400 72 400 Z "/>
<path style=" stroke:none;fill-rule:nonzero;fill:#8D6C9F;fill-opacity:1;" d="M 488 64 L 24 64 C 10.746094 64 0 74.746094 0 88 L 0 424 C 0 437.253906 10.746094 448 24 448 L 488 448 C 501.253906 448 512 437.253906 512 424 L 512 88 C 512 74.746094 501.253906 64 488 64 Z M 496 424 C 496 428.417969 492.417969 432 488 432 L 24 432 C 19.582031 432 16 428.417969 16 424 L 16 88 C 16 83.582031 19.582031 80 24 80 L 488 80 C 492.417969 80 496 83.582031 496 88 Z "/>
</g>
</svg>
